<!DOCTYPE svg PUBLIC "-//W3C//DTD SVG 20010904//EN" "http://www.w3.org/TR/2001/REC-SVG-20010904/DTD/svg10.dtd">
<svg version="1.0" xmlns="http://www.w3.org/2000/svg" width="944px" height="312px" viewBox="0 0 9440 3120" preserveAspectRatio="xMidYMid meet">
<g id="layer101" fill="#002c3f" stroke="none">
 <path d="M0 1560 l0 -1560 4720 0 4720 0 0 1560 0 1560 -4720 0 -4720 0 0 -1560z"/>
 </g>
<g id="layer102" fill="#6f7070" stroke="none">
 <path d="M0 1560 l0 -1560 4720 0 4720 0 0 1560 0 1560 -4720 0 -4720 0 0 -1560z m2474 1151 c15 -10 37 -32 47 -47 18 -28 19 -67 19 -1078 0 -1047 0 -1049 -21 -1083 -42 -67 30 -63 -1122 -63 l-1044 0 -34 23 c-74 49 -69 -27 -69 1122 0 1149 -5 1073 69 1122 l34 23 1046 0 c1008 0 1047 -1 1075 -19z m1313 -1102 c47 -23 91 -79 114 -144 20 -58 20 -702 0 -760 -21 -63 -59 -105 -118 -132 -47 -22 -65 -25 -142 -21 -117 4 -171 35 -216 123 l-30 59 -3 297 c-5 384 6 456 77 532 70 76 213 97 318 46z m3093 1 c47 -24 95 -79 111 -127 10 -28 14 -160 16 -480 l4 -443 -100 0 -100 0 -3 426 -3 426 -24 19 c-29 24 -36 24 -61 -1 -19 -19 -20 -33 -20 -445 l0 -425 -105 0 -105 0 0 403 c0 477 7 532 74 605 62 69 222 90 316 42z m1513 3 c46 -19 100 -80 115 -132 7 -21 12 -100 12 -175 l0 -137 -102 3 -103 3 -3 120 c-2 108 -4 122 -23 138 -27 22 -35 21 -59 -3 -19 -19 -20 -33 -20 -336 0 -198 4 -322 10 -335 12 -22 62 -26 78 -6 6 7 13 60 14 118 l3 104 103 3 102 3 0 -118 c0 -144 -10 -183 -62 -238 -52 -58 -113 -78 -216 -73 -93 4 -145 28 -184 84 -51 73 -58 128 -58 464 0 171 5 325 11 350 20 91 91 161 180 179 55 12 152 4 202 -16z m580 2 c49 -20 85 -59 115 -123 l27 -57 0 -350 c0 -344 0 -351 -23 -400 -30 -65 -47 -83 -107 -111 -75 -36 -192 -34 -266 4 -66 33 -105 91 -119 177 -13 80 -13 573 1 654 20 125 83 199 189 222 45 10 141 2 183 -16z m-5961 -185 c-1 -107 1 -203 4 -212 4 -15 18 -18 77 -18 170 -1 231 -84 231 -315 0 -131 -19 -208 -67 -261 -50 -58 -75 -64 -272 -64 l-175 0 0 535 0 536 102 -3 102 -3 -2 -195z m1208 -45 l0 -245 26 0 c14 0 34 5 45 10 18 10 19 24 19 246 l0 235 103 -3 102 -3 3 -213 c1 -130 -2 -229 -8 -253 -11 -40 -35 -72 -61 -81 -10 -3 -3 -15 22 -39 46 -43 59 -88 59 -201 0 -111 -15 -181 -47 -219 -47 -55 -64 -59 -278 -59 l-195 0 0 528 c0 291 3 532 7 535 3 4 51 7 105 7 l98 0 0 -245z m690 -190 l0 -434 63 -3 62 -3 3 -97 3 -98 -236 0 -236 0 3 98 3 97 63 3 62 3 0 434 0 435 105 0 105 0 0 -435z m376 348 l9 -88 65 0 65 0 10 85 10 85 98 3 c53 1 97 -1 97 -5 0 -4 -23 -242 -50 -528 -27 -286 -50 -523 -50 -527 0 -5 -81 -8 -179 -8 l-180 0 -5 43 c-8 59 -96 984 -96 1008 0 17 8 19 99 19 l99 0 8 -87z m855 83 c2 -2 3 -43 1 -90 l-3 -86 -110 0 -109 0 0 -445 0 -445 -105 0 -105 0 0 528 c0 291 3 532 7 535 7 7 417 10 424 3z m1159 -251 c0 -140 4 -255 8 -255 5 0 30 114 58 253 l49 252 103 3 102 3 0 -536 0 -535 -100 0 -100 0 -1 248 c0 145 -4 238 -9 226 -4 -11 -27 -123 -51 -247 l-43 -227 -108 0 -108 0 0 535 0 535 100 0 100 0 0 -255z m610 -280 l0 -535 -100 0 -100 0 0 528 c0 291 3 532 7 535 3 4 48 7 100 7 l93 0 0 -535z m-1162 -605 c53 -11 107 -23 120 -26 21 -4 22 -9 22 -105 0 -77 -3 -100 -12 -96 -7 2 -70 31 -140 63 l-128 58 0 63 c0 75 -6 73 138 43z"/>
 <path d="M1536 2449 c-33 -26 -33 -44 4 -102 17 -26 30 -50 30 -52 0 -3 -111 -6 -246 -7 l-247 -3 -20 -26 c-17 -24 -18 -30 -5 -55 l13 -29 253 -3 c138 -1 252 -5 252 -8 0 -3 -13 -25 -30 -49 -34 -50 -38 -85 -12 -108 26 -24 65 -21 89 6 42 46 133 193 133 215 0 27 -131 227 -155 236 -25 9 -30 8 -59 -15z"/>
 <path d="M819 2109 c-112 -12 -226 -83 -289 -181 -104 -160 -89 -362 37 -498 64 -70 104 -96 181 -120 43 -13 59 -23 64 -41 4 -13 16 -56 27 -94 35 -123 120 -236 233 -311 100 -67 198 -97 323 -98 172 -1 313 60 429 186 73 78 119 164 144 268 l18 74 45 11 c69 18 128 53 184 109 215 215 128 576 -165 681 -54 20 -264 23 -286 4 -8 -6 -14 -26 -14 -45 0 -52 27 -64 140 -64 84 0 102 -3 156 -29 113 -53 171 -153 162 -280 -6 -75 -32 -134 -82 -184 -42 -43 -91 -66 -169 -79 -73 -13 -97 -34 -97 -87 0 -53 -26 -147 -58 -205 -42 -78 -123 -153 -211 -194 -66 -32 -87 -37 -167 -40 -151 -7 -261 36 -359 139 -71 75 -113 164 -130 275 -7 47 -15 87 -18 90 -3 4 -39 12 -79 20 -126 24 -211 97 -244 210 -29 99 -1 199 79 282 59 60 123 82 242 82 82 0 98 3 115 20 25 25 26 62 3 82 -21 18 -127 26 -214 17z"/>
 <path d="M1178 2093 c-30 -36 -138 -203 -138 -215 0 -19 120 -197 147 -218 25 -20 46 -17 76 8 24 21 21 51 -8 94 -14 20 -25 41 -25 47 0 6 90 10 242 11 208 0 245 3 260 17 24 21 23 58 -2 83 -19 19 -33 20 -266 20 l-246 0 31 42 c34 46 40 88 15 112 -21 21 -67 20 -86 -1z"/>
 <path d="M3624 1436 c-18 -14 -19 -31 -22 -331 -3 -347 0 -365 53 -365 53 0 56 19 53 360 l-3 312 -24 19 c-28 23 -32 23 -57 5z"/>
 <path d="M8824 1436 c-18 -14 -19 -31 -22 -331 -3 -347 0 -365 53 -365 53 0 56 19 53 360 l-3 312 -24 19 c-28 23 -32 23 -57 5z"/>
 <path d="M3017 1003 c-9 -17 -1 -243 9 -253 20 -20 72 8 85 47 17 52 8 167 -15 192 -18 20 -70 29 -79 14z"/>
 <path d="M4224 947 c-3 -8 -4 -54 -2 -103 l3 -89 40 0 c52 0 67 27 62 109 -3 47 -8 63 -26 77 -27 22 -69 25 -77 6z"/>
 <path d="M5310 1263 c1 -71 38 -525 44 -530 3 -3 7 0 10 8 4 13 47 508 46 537 0 8 -17 12 -50 12 -48 0 -50 -1 -50 -27z"/>
 </g>
<g id="layer103" fill="#fefefe" stroke="none">
 <path d="M0 1560 l0 -1560 4720 0 4720 0 0 1560 0 1560 -4720 0 -4720 0 0 -1560z m5548 1284 c48 -33 48 -108 2 -167 -27 -35 -26 -40 20 -59 58 -24 82 -81 78 -185 l-3 -78 -62 -3 -63 -3 0 69 c0 79 -17 115 -44 93 -14 -12 -16 -39 -14 -210 3 -182 4 -196 22 -199 27 -6 36 15 36 81 l0 57 66 0 67 0 -5 -85 c-3 -65 -9 -92 -24 -113 -63 -85 -211 -83 -265 4 -23 37 -24 49 -27 229 -2 104 -1 209 3 232 7 51 44 98 92 118 38 16 66 69 61 114 -3 22 -9 27 -43 31 -34 4 -40 9 -43 31 -2 15 4 34 13 43 22 21 103 21 133 0z m-3072 -130 c15 -11 37 -33 48 -48 21 -27 21 -33 21 -1081 0 -1048 0 -1054 -21 -1081 -11 -15 -33 -37 -48 -48 -27 -21 -35 -21 -1059 -24 -1154 -3 -1093 -6 -1142 66 l-25 37 0 1045 c0 1184 -6 1093 81 1138 l44 22 1037 -2 c1029 -3 1037 -3 1064 -24z m2083 -103 c54 -38 64 -64 65 -163 l1 -93 -61 -3 -62 -3 -4 76 c-2 51 -8 79 -17 85 -26 15 -40 -1 -46 -53 -8 -61 0 -331 9 -346 4 -6 15 -11 25 -11 22 0 31 26 31 93 l0 48 63 -3 62 -3 -2 -78 c-2 -91 -20 -130 -73 -158 -47 -26 -125 -25 -168 1 -63 38 -72 77 -72 313 0 223 3 238 53 286 46 43 145 49 196 12z m1740 0 c14 -9 34 -30 45 -45 20 -26 21 -41 21 -261 0 -220 -1 -235 -21 -262 -64 -87 -216 -83 -269 7 -18 32 -20 52 -20 255 0 192 2 224 18 252 41 75 157 103 226 54z m2505 1 c60 -35 66 -63 66 -307 0 -194 -2 -224 -18 -254 -52 -96 -213 -95 -272 1 -18 30 -20 51 -20 246 0 229 5 256 53 301 47 43 130 48 191 13z m363 2 c34 -21 55 -71 61 -141 7 -92 -14 -138 -110 -239 -83 -89 -98 -126 -51 -132 18 -3 23 3 29 32 l6 36 59 0 c73 0 78 -9 53 -87 -25 -74 -54 -96 -137 -101 -50 -2 -69 1 -95 18 -62 39 -84 149 -44 226 11 21 46 64 77 94 31 30 63 67 71 82 20 39 18 104 -3 112 -26 10 -43 -20 -43 -76 l0 -49 -62 3 -63 3 2 58 c3 73 17 118 47 146 41 38 153 46 203 15z m-6129 -4 c60 -37 67 -68 67 -310 0 -300 -6 -310 -197 -313 l-113 -2 -3 323 -2 322 107 0 c91 0 113 -3 141 -20z m386 -40 l-2 -55 -63 -5 -64 -5 -3 -72 -3 -72 58 -3 58 -3 0 -60 0 -60 -55 0 -55 0 -3 -62 -3 -62 63 -3 62 -3 1 -57 1 -56 -120 -4 c-67 -2 -124 -3 -128 -1 -5 2 -8 148 -8 324 l0 320 133 -3 132 -3 -1 -55z m349 -37 c4 -54 7 -119 7 -145 0 -41 3 -48 20 -48 19 0 20 7 20 123 0 170 -1 167 71 167 l59 0 0 -144 c0 -131 -2 -146 -21 -170 -19 -24 -20 -28 -6 -39 24 -18 37 -62 37 -120 0 -70 -15 -119 -45 -147 -22 -21 -35 -23 -145 -26 l-120 -3 0 324 0 325 58 0 59 0 6 -97z m497 37 l0 -60 -64 0 c-75 0 -77 -2 -69 -88 l6 -61 56 -3 56 -3 0 -60 0 -60 -57 1 c-64 1 -68 -4 -60 -83 l4 -43 59 0 59 0 0 -60 c0 -33 -3 -60 -7 -60 -5 -1 -61 -2 -126 -3 l-117 -2 0 323 0 322 130 0 130 0 0 -60z m668 -2 l3 -57 -68 -3 -68 -3 -3 -72 -3 -72 58 -3 58 -3 0 -60 0 -60 -57 -3 -58 -3 0 -59 0 -59 63 -3 62 -3 3 -57 3 -58 -48 -1 c-26 0 -84 -2 -128 -2 l-80 -2 -3 323 -2 323 132 -3 133 -3 3 -57z m172 -68 l0 -130 45 0 c104 0 140 -57 133 -208 -7 -148 -36 -175 -196 -176 l-107 -1 -3 323 -2 322 65 0 65 0 0 -130z m690 85 c0 -50 21 -70 64 -59 22 5 25 12 28 52 l3 47 58 3 57 3 0 -33 c0 -64 -51 -583 -59 -598 -10 -19 -194 -26 -208 -7 -9 11 -63 541 -63 610 0 26 1 27 60 27 l60 0 0 -45z m1060 20 c52 -47 55 -64 55 -300 0 -238 -4 -259 -56 -297 -21 -16 -45 -19 -140 -21 l-114 -2 -3 323 -2 324 119 -4 c102 -3 122 -6 141 -23z m373 18 c2 -5 2 -31 -1 -60 l-4 -52 -61 -3 -62 -3 -3 -72 -3 -72 58 -3 58 -3 0 -60 0 -60 -55 0 -55 0 -3 -62 -3 -63 66 0 66 0 -3 -62 -3 -63 -125 0 -125 0 -3 323 -2 322 129 0 c72 0 132 -3 134 -7z m473 -12 c58 -35 64 -65 64 -305 0 -244 -6 -273 -62 -302 -25 -13 -58 -18 -138 -18 l-105 -1 -3 323 -2 322 107 0 c88 0 114 -4 139 -19z m232 -33 c3 -41 7 -49 28 -54 39 -10 51 1 59 55 l7 51 59 0 c35 0 59 -4 59 -11 0 -20 -61 -623 -63 -625 -9 -7 -208 -11 -212 -5 -4 7 -65 600 -65 634 0 4 28 7 63 5 l62 -3 3 -47z m522 17 c46 -44 52 -84 48 -314 -3 -177 -6 -211 -21 -234 -33 -50 -56 -58 -179 -60 l-113 -2 -3 323 -2 324 119 -4 c117 -3 120 -4 151 -33z m-2499 -684 c34 -35 37 -56 8 -72 -16 -8 -27 -8 -44 1 -19 10 -35 9 -85 -3 -69 -18 -98 -12 -124 25 -21 30 -20 45 3 58 14 7 27 7 43 0 17 -8 33 -7 63 4 65 24 102 20 136 -13z m-2207 -283 c59 -18 127 -90 149 -157 25 -77 26 -695 1 -767 -23 -69 -51 -101 -114 -132 -45 -22 -68 -27 -130 -27 -41 0 -92 6 -113 14 -50 17 -103 64 -130 115 -21 40 -22 53 -25 384 -3 285 -1 352 12 396 27 92 83 151 166 177 40 12 139 10 184 -3z m3134 -17 c23 -12 55 -40 71 -61 53 -73 56 -106 56 -570 l0 -425 -105 0 -105 0 -5 433 c-5 464 -4 456 -55 450 -42 -6 -45 -31 -45 -470 l0 -418 -105 0 -106 0 3 453 3 452 28 57 c47 95 115 130 242 125 58 -3 92 -10 123 -26z m1516 0 c59 -29 101 -85 116 -155 6 -29 9 -106 8 -172 l-3 -119 -105 0 -105 0 -5 121 c-5 129 -16 158 -54 152 -42 -6 -46 -36 -46 -348 0 -308 4 -341 43 -348 10 -2 27 4 38 14 16 15 19 31 19 121 l0 103 111 0 112 0 -5 -127 c-6 -147 -21 -196 -74 -243 -56 -49 -100 -63 -194 -64 -98 0 -146 18 -198 78 -61 69 -67 114 -67 471 0 244 3 331 14 368 18 63 88 140 144 161 63 23 189 16 251 -13z m559 13 c59 -20 118 -84 140 -155 15 -44 17 -101 17 -383 0 -366 -5 -404 -58 -463 -51 -55 -106 -77 -197 -77 -44 -1 -97 5 -118 13 -50 17 -103 64 -130 115 -21 40 -22 53 -25 384 -3 285 -1 352 12 396 27 92 83 151 166 177 44 13 145 10 193 -7z m-5941 -205 l3 -211 77 -3 c168 -8 228 -93 228 -328 0 -189 -53 -288 -170 -317 -26 -6 -109 -10 -200 -8 -140 3 -155 5 -154 21 0 9 1 251 2 537 l2 520 105 0 105 0 2 -211z m1208 -34 c0 -238 1 -245 20 -245 11 0 29 9 40 20 19 19 20 33 20 245 l0 225 105 0 105 0 0 -237 c0 -218 -2 -241 -20 -270 -10 -17 -29 -37 -41 -43 -22 -12 -22 -12 9 -32 48 -30 67 -93 66 -213 -1 -172 -38 -248 -132 -275 -20 -5 -117 -10 -214 -10 l-178 0 0 540 0 540 110 0 110 0 0 -245z m687 -190 l2 -430 61 -3 60 -3 0 -104 0 -105 -235 0 -235 0 0 105 0 104 63 3 62 3 3 433 2 433 108 -3 107 -3 2 -430z m373 350 l5 -80 65 0 65 0 3 40 c1 22 5 59 8 83 l5 42 100 0 99 0 0 -32 c0 -40 -89 -994 -96 -1026 l-4 -22 -183 2 -182 3 -46 485 c-26 267 -49 509 -52 538 l-6 53 107 -3 107 -3 5 -80z m860 -5 l0 -90 -110 0 -110 0 -2 -447 -3 -448 -107 -3 -108 -3 0 541 0 540 220 0 220 0 0 -90z m1161 -157 l1 -248 50 248 51 247 109 0 108 0 -2 -537 -3 -538 -105 0 -105 0 2 239 c2 131 0 237 -2 234 -3 -3 -25 -108 -49 -233 -25 -125 -48 -231 -53 -236 -6 -6 -57 -8 -114 -7 l-104 3 -3 525 c-1 289 0 531 3 538 3 8 35 12 110 12 l105 0 1 -247z m607 -290 l-3 -538 -102 -3 -103 -3 0 541 0 540 105 0 105 0 -2 -537z m-1158 -601 l135 -28 3 -99 c1 -54 -1 -102 -5 -106 -4 -4 -60 17 -123 46 -182 84 -170 75 -170 143 0 55 5 73 19 72 3 -1 67 -13 141 -28z"/>
 <path d="M1536 2444 c-23 -23 -20 -62 9 -99 47 -62 54 -60 -218 -60 -234 0 -249 -1 -263 -19 -8 -11 -14 -30 -14 -42 0 -45 18 -49 281 -54 l247 -5 -34 -56 c-29 -47 -33 -60 -25 -81 11 -29 40 -43 70 -33 20 6 161 212 161 235 0 13 -104 173 -138 213 -19 21 -55 22 -76 1z"/>
 <path d="M776 2099 c-109 -26 -225 -121 -274 -227 -31 -67 -42 -194 -23 -278 27 -119 138 -235 267 -278 l67 -23 17 -71 c46 -197 190 -356 382 -424 93 -33 275 -33 371 1 144 49 272 162 337 296 25 54 36 86 54 176 5 22 14 29 52 38 98 25 198 99 248 185 92 158 66 367 -62 495 -87 87 -179 121 -333 121 -103 0 -129 -11 -129 -57 0 -39 29 -50 137 -55 90 -4 110 -9 168 -37 104 -52 158 -138 158 -256 1 -81 -21 -139 -74 -200 -42 -47 -139 -95 -195 -95 -55 0 -69 -19 -83 -115 -15 -106 -56 -191 -128 -266 -68 -72 -168 -125 -265 -141 -256 -42 -514 157 -535 412 -7 85 -25 110 -78 110 -55 0 -140 37 -185 81 -151 147 -105 395 89 482 34 15 75 22 154 25 98 4 110 7 123 27 17 26 6 68 -21 79 -24 9 -193 6 -239 -5z"/>
 <path d="M1183 2088 c-42 -47 -133 -190 -133 -209 0 -21 111 -195 138 -216 23 -19 49 -16 72 7 27 27 25 39 -10 91 -16 24 -30 47 -30 52 0 4 110 7 245 7 232 0 246 1 265 20 25 25 25 41 2 70 -17 21 -25 22 -261 25 -134 2 -245 6 -248 9 -2 2 9 23 26 47 36 49 39 71 11 99 -26 26 -52 25 -77 -2z"/>
 <path d="M6192 2508 c-14 -14 -17 -375 -3 -396 5 -8 17 -12 27 -10 18 3 19 16 22 197 2 134 -1 198 -9 207 -14 17 -22 17 -37 2z"/>
 <path d="M8699 2509 c-18 -11 -26 -338 -10 -381 15 -39 47 -37 55 3 8 40 8 327 0 356 -7 25 -25 35 -45 22z"/>
 <path d="M2920 2310 l0 -210 24 0 c21 0 26 6 31 43 4 23 5 113 3 200 -2 127 -6 160 -18 167 -39 25 -40 17 -40 -200z"/>
 <path d="M3778 2213 c-9 -17 4 -113 15 -113 29 1 38 18 35 66 -3 41 -6 49 -25 52 -11 2 -23 0 -25 -5z"/>
 <path d="M5110 2179 c0 -71 2 -80 17 -77 22 4 43 44 43 83 0 35 -24 75 -46 75 -11 0 -14 -17 -14 -81z"/>
 <path d="M5824 2308 c4 -62 10 -135 13 -163 l7 -50 7 55 c4 30 11 103 15 163 l7 107 -28 0 -27 0 6 -112z"/>
 <path d="M6730 2310 l0 -210 24 0 c13 0 27 7 30 16 3 9 6 98 6 199 0 172 -1 185 -19 195 -11 5 -24 10 -30 10 -8 0 -11 -68 -11 -210z"/>
 <path d="M7590 2309 l0 -210 23 3 c22 3 22 4 25 202 2 153 -1 201 -10 208 -36 22 -38 13 -38 -203z"/>
 <path d="M7954 2373 c3 -27 8 -96 12 -155 3 -59 10 -106 14 -103 4 2 10 51 14 107 4 57 9 124 13 151 l6 47 -33 0 -32 0 6 -47z"/>
 <path d="M8327 2513 c-4 -3 -7 -98 -7 -210 l0 -204 28 3 27 3 3 195 c2 174 1 196 -15 207 -19 15 -27 16 -36 6z"/>
 <path d="M3619 1423 c-11 -13 -14 -77 -14 -317 0 -166 3 -313 8 -328 8 -31 38 -44 67 -28 19 10 20 19 20 331 0 202 -4 327 -10 340 -13 23 -53 25 -71 2z"/>
 <path d="M8822 1428 c-9 -9 -12 -97 -12 -333 0 -299 1 -323 18 -338 23 -21 36 -21 56 -1 14 13 16 57 16 330 0 198 -4 322 -10 335 -12 21 -50 25 -68 7z"/>
 <path d="M3020 880 l0 -130 25 0 c14 0 33 8 44 19 19 19 35 103 27 143 -3 13 -7 35 -10 49 -3 15 -17 31 -31 37 -54 25 -55 23 -55 -118z"/>
 <path d="M4230 855 c0 -105 6 -115 57 -98 27 9 28 13 31 81 4 90 -7 112 -53 112 l-35 0 0 -95z"/>
 <path d="M5315 1243 c3 -21 12 -141 21 -268 9 -126 18 -232 19 -233 6 -6 14 73 30 288 9 113 18 215 21 228 4 20 1 22 -46 22 l-50 0 5 -37z"/>
 </g>

</svg>