<!DOCTYPE svg PUBLIC "-//W3C//DTD SVG 20010904//EN" "http://www.w3.org/TR/2001/REC-SVG-20010904/DTD/svg10.dtd">
<svg version="1.0" xmlns="http://www.w3.org/2000/svg" width="937px" height="324px" viewBox="0 0 9370 3240" preserveAspectRatio="xMidYMid meet">
<g id="layer101" fill="#002d41" stroke="none">
<path d="M0 1620 l0 -1620 4685 0 4685 0 0 1620 0 1620 -4685 0 -4685 0 0 -1620z"/>
</g>
<g id="layer102" fill="#737373" stroke="none">
<path d="M0 1620 l0 -1620 4685 0 4685 0 0 1620 0 1620 -4685 0 -4685 0 0 -1620z m3263 1285 c37 -18 74 -67 83 -112 5 -24 -87 -310 -425 -1330 -252 -762 -439 -1311 -452 -1327 -46 -59 -140 -75 -197 -33 -48 34 -1852 2067 -1869 2106 -9 22 -12 47 -8 73 8 43 53 103 88 114 44 15 2673 522 2710 523 22 0 53 -6 70 -14z m1184 -854 c49 -24 80 -65 99 -128 17 -56 20 -566 4 -624 -28 -99 -100 -149 -215 -149 -115 1 -191 50 -215 141 -8 27 -10 145 -8 338 3 284 4 298 25 338 26 48 73 87 123 102 50 15 140 7 187 -18z m2631 5 c48 -25 89 -80 101 -136 7 -32 11 -187 11 -411 l0 -360 -87 3 -88 3 -5 365 c-3 201 -9 371 -13 378 -12 17 -42 15 -58 -5 -11 -13 -15 -90 -17 -380 l-3 -364 -87 3 -87 3 0 365 c0 413 3 438 66 501 20 20 54 41 75 47 49 14 155 7 192 -12z m1306 -10 c24 -14 51 -42 66 -68 22 -38 25 -57 28 -170 l4 -128 -90 0 -90 0 -4 99 c-4 103 -14 131 -49 131 -36 0 -39 -31 -37 -306 3 -257 4 -267 24 -280 17 -12 23 -12 39 0 15 11 20 30 23 105 l4 91 90 0 90 0 -4 -112 c-4 -134 -21 -177 -86 -223 -38 -26 -54 -30 -122 -33 -131 -6 -203 43 -229 158 -6 25 -11 167 -11 316 0 303 5 336 64 393 18 18 53 39 77 47 63 20 160 11 213 -20z m451 20 c62 -19 110 -66 132 -130 16 -44 18 -89 18 -326 0 -312 -6 -347 -63 -405 -44 -43 -95 -58 -188 -53 -90 4 -141 35 -175 105 -24 47 -24 53 -24 343 0 261 2 300 18 342 20 53 82 114 124 124 16 3 33 7 38 9 24 8 75 4 120 -9z m-5045 -175 l0 -178 68 -5 c86 -6 133 -29 159 -76 59 -106 55 -315 -8 -407 -40 -58 -82 -70 -249 -70 l-145 0 -3 458 -2 457 90 0 90 0 0 -179z m1030 -32 l0 -211 27 7 c15 3 31 12 35 18 4 7 8 99 8 205 l0 192 90 0 90 0 0 -195 c0 -211 -9 -257 -50 -270 -20 -6 -20 -8 14 -41 42 -41 51 -85 44 -215 -6 -101 -25 -142 -78 -174 -31 -17 -56 -20 -197 -24 l-163 -3 0 461 0 461 90 0 90 0 0 -211z m590 -159 l0 -370 50 0 50 0 0 -90 0 -90 -197 2 -198 3 -3 88 -3 87 56 0 55 0 0 370 0 370 95 0 95 0 0 -370z m315 295 l7 -75 53 0 52 0 7 38 c3 20 6 54 6 75 l0 37 89 0 90 0 -5 -32 c-2 -18 -20 -202 -39 -408 -19 -206 -38 -399 -41 -428 l-6 -52 -153 0 -153 0 -6 48 c-4 26 -22 214 -41 417 -19 204 -37 389 -40 413 l-6 42 89 0 90 0 7 -75z m733 -2 l-3 -78 -92 -3 -93 -3 -2 -377 -3 -377 -90 0 -90 0 -3 458 -2 457 190 0 191 0 -3 -77z m983 -150 c1 -143 4 -215 9 -193 5 19 25 122 46 228 l37 192 88 0 89 0 0 -460 0 -460 -85 0 -85 0 -1 218 c0 201 -7 243 -22 134 -8 -53 -56 -311 -63 -335 -5 -16 -16 -17 -97 -15 l-92 3 -3 458 -2 457 90 0 90 0 1 -227z m519 -233 l0 -461 -87 3 -88 3 -3 458 -2 457 90 0 90 0 0 -460z m-977 -511 l107 -22 0 -88 c0 -49 -2 -89 -4 -89 -2 0 -57 25 -123 55 l-118 54 -3 56 c-4 66 -11 64 141 34z"/>
<path d="M5749 1776 c-2 -3 1 -78 8 -168 6 -90 12 -193 12 -230 2 -176 27 -5 55 377 1 16 -6 21 -34 23 -20 2 -38 1 -41 -2z"/>
</g>
<g id="layer103" fill="#ffffff" stroke="none">
<path d="M0 1620 l0 -1620 4685 0 4685 0 0 1620 0 1620 -4685 0 -4685 0 0 -1620z m5958 1454 c12 -14 22 -33 22 -42 -1 -23 -35 -98 -50 -107 -8 -5 3 -14 28 -25 55 -25 72 -61 72 -155 l0 -75 -55 0 -54 0 -3 68 c-3 59 -5 67 -23 67 -19 0 -20 -7 -20 -170 0 -163 1 -170 20 -170 17 0 20 8 23 58 l3 57 54 0 55 0 0 -60 c0 -112 -41 -160 -135 -160 -117 0 -138 45 -133 292 4 210 4 212 106 265 2 1 10 19 17 40 17 48 5 73 -35 73 -27 0 -30 3 -30 30 0 22 6 33 23 40 34 14 89 2 115 -26z m-2695 -169 c37 -18 74 -67 83 -112 5 -24 -87 -310 -425 -1330 -252 -762 -439 -1311 -452 -1327 -46 -59 -140 -75 -197 -33 -48 34 -1852 2067 -1869 2106 -9 22 -12 47 -8 73 8 43 53 103 88 114 44 15 2673 522 2710 523 22 0 53 -6 70 -14z m561 -24 c40 -38 48 -88 44 -271 -5 -234 -17 -250 -178 -250 l-90 0 0 276 0 276 99 -4 c89 -3 102 -6 125 -27z m316 -26 l0 -55 -60 0 -60 0 0 -60 0 -60 56 0 55 0 -3 -52 -3 -53 -52 -3 -53 -3 0 -50 0 -49 55 0 55 0 0 -55 0 -55 -110 0 -110 0 0 275 0 275 115 0 115 0 0 -55z m300 -71 c0 -114 2 -125 18 -122 15 3 17 18 20 126 l3 122 54 0 55 0 0 -115 c0 -107 -11 -165 -32 -165 -5 0 0 -12 11 -27 20 -28 25 -61 22 -141 -1 -34 -8 -50 -30 -73 -29 -28 -32 -29 -130 -29 l-101 0 0 275 0 275 55 0 55 0 0 -126z m420 71 l0 -55 -60 0 -60 0 0 -60 0 -60 56 0 55 0 -3 -52 -3 -53 -52 -3 -53 -3 0 -50 0 -49 55 0 55 0 0 -55 0 -55 -110 0 -110 0 0 275 0 275 115 0 115 0 0 -55z m248 39 c38 -26 52 -67 52 -149 l0 -75 -55 0 -54 0 -3 68 c-3 59 -5 67 -23 67 -19 0 -20 -7 -20 -170 0 -163 1 -170 20 -170 17 0 20 8 23 58 l3 57 54 0 55 0 0 -60 c0 -112 -41 -160 -135 -160 -115 0 -135 43 -135 281 0 188 7 220 58 251 35 23 129 24 160 2z m320 -36 l-3 -53 -57 -3 -58 -3 0 -59 0 -60 50 0 50 0 0 -55 0 -55 -50 0 -50 0 0 -50 0 -50 55 0 55 0 0 -55 0 -55 -110 0 -110 0 0 275 0 275 116 0 115 0 -3 -52z m142 -58 l0 -110 46 0 c85 0 126 -75 110 -203 -11 -98 -51 -127 -178 -127 l-88 0 0 275 0 275 55 0 55 0 0 -110z m592 68 c3 -40 5 -43 35 -46 31 -3 32 -2 38 42 l7 46 49 0 c44 0 49 -2 49 -22 0 -28 -37 -426 -45 -485 l-6 -43 -92 0 -93 0 -23 253 c-12 138 -25 262 -28 275 -5 21 -2 22 50 22 l56 0 3 -42z m430 22 c45 -35 49 -62 46 -274 l-3 -198 -33 -29 c-27 -25 -41 -29 -88 -29 -123 0 -144 39 -144 268 0 179 8 220 51 256 40 34 132 37 171 6z m452 8 c54 -24 61 -49 64 -227 4 -194 -1 -242 -33 -279 -22 -26 -28 -27 -129 -30 l-106 -4 0 276 0 276 90 0 c49 0 100 -5 114 -12z m336 -43 l0 -55 -55 0 -55 0 0 -60 0 -60 50 0 50 0 0 -55 0 -55 -50 0 -50 0 0 -50 0 -50 50 0 50 0 0 -55 0 -55 -110 0 -110 0 0 275 0 275 115 0 115 0 0 -55z m414 26 c40 -38 48 -88 44 -271 -5 -234 -17 -250 -178 -250 l-90 0 0 276 0 276 99 -4 c89 -3 102 -6 125 -27z m186 -16 c0 -45 0 -45 35 -45 32 0 35 2 35 29 0 53 8 61 61 61 33 0 49 -4 49 -12 0 -7 -11 -128 -25 -268 -14 -140 -25 -258 -25 -262 0 -5 -43 -8 -95 -8 -84 0 -95 2 -95 18 0 9 -11 130 -25 267 -14 138 -25 253 -25 258 0 4 25 7 55 7 l55 0 0 -45z m445 15 c18 -18 28 -44 35 -85 14 -79 2 -351 -16 -386 -18 -36 -61 -49 -165 -49 l-89 0 0 276 0 276 105 -4 c96 -3 107 -5 130 -28z m293 14 c45 -31 56 -70 60 -217 6 -193 -2 -243 -43 -284 -30 -30 -38 -33 -95 -33 -57 0 -65 3 -95 33 -30 30 -34 41 -40 112 -4 44 -5 132 -2 196 7 169 34 209 137 209 34 0 64 -6 78 -16z m308 -2 c30 -24 42 -50 50 -109 9 -74 -9 -118 -81 -193 -34 -36 -67 -74 -72 -85 -13 -26 -6 -45 18 -45 14 0 19 7 19 30 0 30 1 30 55 30 l55 0 0 -35 c0 -80 -47 -125 -130 -125 -85 0 -130 44 -130 129 0 59 13 85 84 160 36 38 68 81 71 94 10 38 2 62 -20 62 -17 0 -21 -8 -25 -50 l-5 -50 -52 -3 -53 -3 0 56 c0 65 19 116 51 139 33 22 137 22 165 -2z m-2847 -583 c63 18 97 14 120 -15 12 -15 21 -33 21 -40 0 -19 -38 -28 -56 -13 -12 10 -22 10 -50 0 -58 -21 -95 -17 -121 13 -29 34 -29 40 0 53 15 7 26 7 35 0 9 -7 25 -6 51 2z m-1732 -258 c49 -24 80 -65 99 -128 17 -56 20 -566 4 -624 -28 -99 -100 -149 -215 -149 -115 1 -191 50 -215 141 -8 27 -10 145 -8 338 3 284 4 298 25 338 26 48 73 87 123 102 50 15 140 7 187 -18z m2631 5 c48 -25 89 -80 101 -136 7 -32 11 -187 11 -411 l0 -360 -87 3 -88 3 -5 365 c-3 201 -9 371 -13 378 -12 17 -42 15 -58 -5 -11 -13 -15 -90 -17 -380 l-3 -364 -87 3 -87 3 0 365 c0 413 3 438 66 501 20 20 54 41 75 47 49 14 155 7 192 -12z m1306 -10 c24 -14 51 -42 66 -68 22 -38 25 -57 28 -170 l4 -128 -90 0 -90 0 -4 99 c-4 103 -14 131 -49 131 -36 0 -39 -31 -37 -306 3 -257 4 -267 24 -280 17 -12 23 -12 39 0 15 11 20 30 23 105 l4 91 90 0 90 0 -4 -112 c-4 -134 -21 -177 -86 -223 -38 -26 -54 -30 -122 -33 -131 -6 -203 43 -229 158 -6 25 -11 167 -11 316 0 303 5 336 64 393 18 18 53 39 77 47 63 20 160 11 213 -20z m451 20 c62 -19 110 -66 132 -130 16 -44 18 -89 18 -326 0 -312 -6 -347 -63 -405 -44 -43 -95 -58 -188 -53 -90 4 -141 35 -175 105 -24 47 -24 53 -24 343 0 261 2 300 18 342 20 53 82 114 124 124 16 3 33 7 38 9 24 8 75 4 120 -9z m-5045 -175 l0 -178 68 -5 c86 -6 133 -29 159 -76 59 -106 55 -315 -8 -407 -40 -58 -82 -70 -249 -70 l-145 0 -3 458 -2 457 90 0 90 0 0 -179z m1030 -32 l0 -211 27 7 c15 3 31 12 35 18 4 7 8 99 8 205 l0 192 90 0 90 0 0 -195 c0 -211 -9 -257 -50 -270 -20 -6 -20 -8 14 -41 42 -41 51 -85 44 -215 -6 -101 -25 -142 -78 -174 -31 -17 -56 -20 -197 -24 l-163 -3 0 461 0 461 90 0 90 0 0 -211z m590 -159 l0 -370 50 0 50 0 0 -90 0 -90 -197 2 -198 3 -3 88 -3 87 56 0 55 0 0 370 0 370 95 0 95 0 0 -370z m315 295 l7 -75 53 0 52 0 7 38 c3 20 6 54 6 75 l0 37 89 0 90 0 -5 -32 c-2 -18 -20 -202 -39 -408 -19 -206 -38 -399 -41 -428 l-6 -52 -153 0 -153 0 -6 48 c-4 26 -22 214 -41 417 -19 204 -37 389 -40 413 l-6 42 89 0 90 0 7 -75z m733 -2 l-3 -78 -92 -3 -93 -3 -2 -377 -3 -377 -90 0 -90 0 -3 458 -2 457 190 0 191 0 -3 -77z m983 -135 c0 -117 4 -204 8 -193 4 11 25 107 46 213 l38 192 88 0 89 0 0 -460 0 -460 -85 0 -85 0 -1 168 c-1 242 -9 248 -48 36 -19 -98 -36 -185 -39 -192 -3 -9 -28 -12 -96 -10 l-91 3 -3 458 -2 457 90 0 90 0 1 -212z m519 -248 l0 -461 -87 3 -88 3 -3 458 -2 457 90 0 90 0 0 -460z m-977 -511 l107 -22 0 -88 c0 -49 -2 -89 -4 -89 -2 0 -57 25 -123 55 l-118 54 -3 56 c-4 66 -11 64 141 34z"/>
<path d="M3710 2635 c0 -165 1 -175 19 -175 28 0 31 18 31 175 0 157 -3 175 -31 175 -18 0 -19 -10 -19 -175z"/>
<path d="M4440 2510 c0 -51 12 -64 38 -38 25 25 11 88 -19 88 -16 0 -19 -8 -19 -50z"/>
<path d="M5570 2525 c0 -47 4 -65 13 -65 24 0 37 23 37 65 0 42 -13 65 -37 65 -9 0 -13 -18 -13 -65z"/>
<path d="M6182 2643 c3 -49 7 -110 8 -138 l2 -50 8 40 c4 22 11 84 15 138 l7 97 -23 0 c-24 0 -24 0 -17 -87z"/>
<path d="M6485 2798 c-3 -8 -4 -86 -3 -173 3 -158 3 -160 26 -163 l22 -3 -2 173 c-3 155 -5 173 -21 176 -9 2 -19 -3 -22 -10z"/>
<path d="M6950 2635 l0 -176 23 3 c22 3 22 4 22 173 0 169 0 170 -22 173 l-23 3 0 -176z"/>
<path d="M7680 2635 c0 -165 1 -175 19 -175 28 0 31 18 31 175 0 157 -3 175 -31 175 -18 0 -19 -10 -19 -175z"/>
<path d="M7994 2683 c3 -27 8 -88 12 -138 l8 -90 7 60 c4 33 10 95 14 138 l7 77 -27 0 c-26 0 -27 -1 -21 -47z"/>
<path d="M8310 2636 c0 -170 1 -176 20 -176 20 0 20 5 18 172 -3 155 -5 173 -20 176 -17 3 -18 -10 -18 -172z"/>
<path d="M8616 2788 c-8 -30 -8 -292 0 -312 9 -24 41 -19 48 7 8 29 8 256 0 296 -8 37 -39 43 -48 9z"/>
<path d="M4300 1891 c-6 -12 -10 -120 -10 -280 0 -249 1 -262 20 -281 30 -30 57 -12 65 43 4 24 5 147 3 274 -3 241 -7 263 -49 263 -10 0 -23 -9 -29 -19z"/>
<path d="M8729 1893 c-11 -13 -14 -72 -14 -285 0 -255 1 -270 19 -284 25 -18 31 -18 50 2 14 13 16 53 16 280 0 164 -4 273 -10 285 -13 23 -43 25 -61 2z"/>
<path d="M3790 1430 c0 -109 0 -110 23 -110 33 0 55 28 63 77 13 83 -13 143 -62 143 -24 0 -24 0 -24 -110z"/>
<path d="M4820 1405 c0 -79 1 -85 21 -85 47 0 59 17 59 83 0 70 -10 87 -52 87 l-28 0 0 -85z"/>
<path d="M5749 1776 c-7 -7 19 -374 30 -421 8 -37 9 -38 10 -10 1 17 10 118 20 225 10 107 16 198 14 203 -4 7 -67 10 -74 3z"/>
</g>


</svg>